<svg width="32" height="32" xmlns="http://www.w3.org/2000/svg" viewBox="0 0 32 32" fill="none">
  <!-- Outer Circle -->
  <circle cx="16" cy="16" r="15" stroke="#1E90FF" stroke-width="1.5" fill="none"/>
  
  <!-- Main Cross Lines -->
  <line x1="16" y1="2" x2="16" y2="30" stroke="#1E90FF" stroke-width="1.2"/>
  <line x1="2" y1="16" x2="30" y2="16" stroke="#1E90FF" stroke-width="1.2"/>
  
  <!-- Diagonal Lines -->
  <line x1="6.3" y1="6.3" x2="25.7" y2="25.7" stroke="#1E90FF" stroke-width="0.8"/>
  <line x1="25.7" y1="6.3" x2="6.3" y2="25.7" stroke="#1E90FF" stroke-width="0.8"/>
  
  <!-- North Arrow -->
  <polygon points="16,2 14,8 18,8" fill="#1E90FF"/>
  
  <!-- Directional Points -->
  <polygon points="16,4 15,9 17,9" fill="#1E90FF"/>
  <polygon points="16,28 15,23 17,23" fill="#1E90FF"/>
  <polygon points="4,16 9,15 9,17" fill="#1E90FF"/>
  <polygon points="28,16 23,15 23,17" fill="#1E90FF"/>
  
  <!-- Center Star -->
  <polygon points="16,12 17,15 20,15 18,17 19,20 16,18 13,20 14,17 12,15 15,15" fill="#1E90FF"/>
</svg>