<svg xmlns="http://www.w3.org/2000/svg" viewBox="0 0 100 100" fill="none">
  <defs>
    <style>
      .compass-blue { fill: #1E90FF; }
    </style>
  </defs>
  
  <!-- Outer Circle -->
  <circle cx="50" cy="50" r="48" stroke="#1E90FF" stroke-width="4" fill="none"/>
  
  <!-- Main Cross (North-South, East-West) -->
  <line x1="50" y1="8" x2="50" y2="92" stroke="#1E90FF" stroke-width="3"/>
  <line x1="8" y1="50" x2="92" y2="50" stroke="#1E90FF" stroke-width="3"/>
  
  <!-- Diagonal Lines -->
  <line x1="21.7" y1="21.7" x2="78.3" y2="78.3" stroke="#1E90FF" stroke-width="2"/>
  <line x1="78.3" y1="21.7" x2="21.7" y2="78.3" stroke="#1E90FF" stroke-width="2"/>
  
  <!-- North Arrow -->
  <polygon points="50,8 45,20 55,20" class="compass-blue"/>
  
  <!-- Directional Points -->
  <polygon points="50,15 47,25 53,25" class="compass-blue"/>
  <polygon points="50,85 47,75 53,75" class="compass-blue"/>
  <polygon points="15,50 25,47 25,53" class="compass-blue"/>
  <polygon points="85,50 75,47 75,53" class="compass-blue"/>
  
  <!-- Center Star -->
  <polygon points="50,40 52,46 58,46 53,50 55,56 50,52 45,56 47,50 42,46 48,46" class="compass-blue"/>
</svg>